<svg width="1069" height="207" viewBox="0 0 1069 207" fill="none" xmlns="http://www.w3.org/2000/svg">
<path fill-rule="evenodd" clip-rule="evenodd" d="M345.814 1.01884C335.938 2.46784 327.787 4.95483 318.377 9.39183C306.206 15.1308 298.47 20.5239 289.024 29.8569C276 42.7249 266.998 58.2158 262.246 75.9408C260.054 84.1198 259.692 87.5968 259.644 100.941C259.575 120.243 261.604 129.462 269.439 145.441C296.333 200.294 364.388 219.638 414.582 186.698C435.98 172.655 452.645 150.072 459.206 126.225C462.342 114.829 462.322 88.0148 459.169 76.4408C453.265 54.7688 439.418 34.1868 421.824 20.9288C399.901 4.40981 372.187 -2.85016 345.814 1.01884ZM7.327 3.59782C6.132 3.85182 3.994 5.21982 2.577 6.63682L0 9.21385V100.154V191.095L2.923 194.018L5.846 196.941L28.173 196.909C44.195 196.886 50.924 196.533 52 195.659C56.616 191.91 56.472 193.551 57 138.68L57.5 86.7239L78 112.564C102.056 142.885 104.379 145.568 108.348 147.621C112.467 149.751 120.069 149.598 124.001 147.306C126.77 145.692 137.516 132.673 167.52 94.5779L174.5 85.7159L175 138.916L175.5 192.115L178.306 194.528C181.091 196.923 181.276 196.941 203.5 196.941C225.725 196.941 225.909 196.923 228.694 194.528L231.5 192.115L231.766 101.061L232.031 10.0068L229.096 6.72386L226.16 3.44084H200.83C182.313 3.44084 174.674 3.78981 172.427 4.73881C170.697 5.46981 157.436 18.4678 142.077 34.4888C127.073 50.1378 114.484 62.9408 114.099 62.9408C113.715 62.9408 101.746 50.1478 87.503 34.5118C73.26 18.8758 60.457 5.50081 59.053 4.79081C57.216 3.86081 49.908 3.44781 33 3.31681C20.075 3.21781 8.522 3.34382 7.327 3.59782ZM374.489 58.0228C391.093 64.2348 403.028 81.1028 402.984 98.2958C402.951 111.445 398.644 121.676 389.562 130.176C379.872 139.246 368.65 143.529 356.746 142.698C347.562 142.057 339.235 138.886 332.656 133.526C320.247 123.414 315.421 112.415 316.209 96.0389C316.614 87.6419 317.115 85.4518 319.956 79.6828C323.645 72.1878 331.999 63.5118 338.933 59.9748C349.207 54.7338 363.588 53.9438 374.489 58.0228Z" fill="url(#paint0_linear_401_1298)"/>
<path fill-rule="evenodd" clip-rule="evenodd" d="M555.546 1.40162C542.208 4.22662 529.487 10.9257 520.615 19.7977C506.274 34.1387 500.305 52.8827 503.874 72.3667C506.215 85.1477 508.97 91.1776 515.807 98.4866C526.317 109.722 541.062 116.575 564.957 121.331C571.606 122.654 577.946 124.072 579.046 124.482C586.279 127.177 592.55 134.621 592.542 140.503C592.537 144.671 589.335 149.265 585.002 151.321C581.877 152.804 579.474 153.029 571.134 152.621C558.377 151.997 553.222 150.064 539.555 140.78C527.773 132.775 518.632 127.867 515.509 127.867C511.76 127.867 509.826 129.682 500.218 142.219C488.942 156.933 487.546 159.445 487.546 165.024C487.546 168.937 488.052 169.769 493.813 175.324C504.97 186.083 527.455 197.934 545.855 202.754C578.868 211.401 610.884 204.563 632.472 184.255C646.968 170.618 652.62 159.125 653.319 141.867C653.677 133.009 653.406 130.368 651.588 124.98C645.049 105.603 625.904 89.4186 600.61 81.8856C596.893 80.7786 588.495 78.7797 581.948 77.4447C568.1 74.6197 564.902 73.5306 561.701 70.5496C554.111 63.4836 555.144 51.7117 563.744 47.2647C565.551 46.3297 570.052 45.3487 573.745 45.0847C582.356 44.4687 593.704 47.8826 605.046 54.5006C620.645 63.6036 623.073 64.8306 625.521 64.8486C627.322 64.8616 630.338 62.4846 636.6 56.1166C648.407 44.1096 651.546 39.5727 651.546 34.5097C651.546 30.8467 650.934 29.8556 645.242 24.3016C641.775 20.9186 635.588 16.2857 631.492 14.0067C622.616 9.06467 606.038 3.48566 593.99 1.38466C583.36 -0.468343 564.341 -0.460375 555.546 1.40162ZM941.189 5.97365C935.747 7.25265 931.887 9.76166 929.082 13.8457C926.951 16.9497 920.732 32.1727 902.314 79.3667C899.524 86.5167 889.356 112.167 879.719 136.367C863.847 176.222 862.19 180.953 862.121 186.592C862.056 192.011 862.381 193.152 864.639 195.412C868.472 199.249 872.891 199.834 896.046 199.57C913.804 199.368 917.543 199.062 920.266 197.588C924.458 195.321 925.161 193.907 930.086 177.867L934.23 164.367L965.341 164.103L996.451 163.839L999.542 174.103C1006.64 197.686 1007.11 198.234 1020.95 199.388C1033.63 200.444 1059.5 199.497 1062.87 197.854C1066.41 196.129 1068.55 192.092 1068.53 187.167C1068.51 180.324 1068.11 179.265 1024.36 69.3667C999.772 7.61765 1000.1 8.22463 989.662 5.98463C983.496 4.66263 946.806 4.65365 941.189 5.97365ZM674.182 8.50264C670.935 11.7506 670.808 15.3916 673.796 19.5646C675.946 22.5666 695.953 46.8146 726.403 83.3226L740.546 100.279V145.996V191.714L743.081 194.727C746.849 199.204 752.974 200.105 776.924 199.705C798.919 199.337 800.468 198.966 804.282 193.149C805.889 190.698 806.074 186.448 806.361 145.537L806.677 100.616L822.331 81.4907C830.94 70.9727 845.991 52.5946 855.777 40.6516C865.562 28.7086 874.012 17.7707 874.554 16.3457C875.707 13.3127 873.722 8.56668 870.601 6.89668C868.166 5.59268 808.654 5.49465 805.251 6.78865C803.797 7.34165 797.145 15.3726 788.633 26.8546C780.827 37.3836 774.015 45.8556 773.495 45.6826C772.975 45.5086 766.126 37.0497 758.275 26.8847C750.423 16.7197 742.885 7.83867 741.523 7.14967C739.698 6.22567 730.857 5.89267 707.932 5.88167L676.819 5.86665L674.182 8.50264ZM975.412 84.3667C981.006 100.867 985.574 114.93 985.564 115.617C985.55 116.577 980.67 116.867 964.546 116.867C949.594 116.867 943.546 116.541 943.546 115.736C943.546 112.935 963.793 52.7246 964.475 53.4976C964.896 53.9756 969.818 67.8667 975.412 84.3667Z" fill="url(#paint1_linear_401_1298)"/>
<defs>
<linearGradient id="paint0_linear_401_1298" x1="230.773" y1="0" x2="230.773" y2="202.831" gradientUnits="userSpaceOnUse">
<stop stop-color="#EC5B21"/>
<stop offset="1" stop-color="#EF912F"/>
</linearGradient>
<linearGradient id="paint1_linear_401_1298" x1="778.039" y1="0" x2="778.039" y2="206.42" gradientUnits="userSpaceOnUse">
<stop stop-color="#2D9E30"/>
<stop offset="1" stop-color="#71B911"/>
</linearGradient>
</defs>
</svg>
