<svg width="1069" height="1225" viewBox="0 0 1069 1225" fill="none" xmlns="http://www.w3.org/2000/svg">
<path d="M741.601 335.24L758.179 372.08C753.574 365.633 737.917 354.581 722.259 352.739C706.602 350.897 684.498 376.685 684.498 376.685C684.498 376.685 661.779 409.228 653.183 424.578L609.267 514L648.578 394.185L685.419 348.134L741.601 335.24Z" fill="url(#paint0_linear_401_1278)"/>
<path d="M693.551 135.984C498.295 39.2772 293.83 150.72 212.78 259.4C207.255 181.114 339.881 103.748 339.881 103.748C418.781 98.2224 604.212 59.5397 693.551 135.984Z" fill="url(#paint1_linear_401_1278)"/>
<path d="M699.997 279.057C634.421 256.953 569.52 357.037 545.267 409.842L486.322 519.443C453.472 580.537 391.457 721.698 420.93 801.274C450.402 880.85 494.611 883.245 524.084 879.56C553.556 875.876 597.765 561.81 597.765 561.81C605.303 540.139 617.191 476.683 641.052 427.341C663.84 380.22 693.551 349.976 702.761 346.292C738.956 331.814 751.575 363.791 755.258 366.554C752.495 349.976 722.102 284.584 699.997 279.057Z" fill="url(#paint2_linear_401_1278)"/>
<path d="M517.636 356.739L503.821 335.556C479.875 314.372 451.323 327.267 443.034 335.556C437.508 341.082 324.517 443.14 309.485 476.471C288.302 523.443 270.804 694.752 301.197 803.432C301.197 803.432 315.635 832.573 330.67 843.957C315.012 800.669 313.093 780.067 310.407 738.04C307.509 692.697 310.981 666.767 318.696 621.992C337.117 520.68 353.695 497.654 390.536 422.131C416.599 388.57 471.586 347.529 471.586 347.529L489.085 345.687L517.636 356.739Z" fill="url(#paint3_linear_401_1278)"/>
<path d="M360.063 271.163C437.429 237.086 491.461 303.398 509.268 343.002C471.506 311.688 411.659 331.029 338.879 499.575C268.883 661.674 313.092 804.432 328.748 844.956C193.36 770.354 174.018 683.779 174.018 598.124C182.308 495.891 283.619 319.056 360.063 271.163Z" fill="url(#paint4_linear_401_1278)"/>
<path d="M446.719 350.739C487.243 319.792 513.339 347.055 521.321 364.554L441.767 484.5C441.767 484.5 424.705 466.21 393.605 415.058C393.402 414.723 393.417 414.279 393.636 413.955C412.575 385.944 410.113 385.513 446.719 350.739Z" fill="url(#paint5_linear_401_1278)"/>
<path d="M436.588 477.997C421.853 401.553 473.428 336.16 515.796 357.343C536.979 368.395 617.107 598.65 622.634 699.041C633.686 795.748 590.398 865.745 564.609 876.797C539.742 889.692 483.56 888.771 463.296 864.823C546.189 910.875 574.741 773.643 539.741 686.146C528.688 655.752 491.849 572.862 436.588 477.997Z" fill="url(#paint6_linear_401_1278)"/>
<path d="M241.331 120.643C229.043 131.317 211.858 150.115 211.858 150.115L409.877 73.6708C483.558 84.109 640.131 109.775 676.972 128.932C741.443 150.115 822.492 250.506 839.071 277.216C874.069 235.77 688.945 50.6454 548.029 53.4084C516.347 38.6722 396.676 54.0225 340.801 63.5396C340.801 63.5396 275.145 91.2685 241.331 120.643Z" fill="url(#paint7_linear_401_1278)"/>
<path d="M694.55 134.379C357.459 -5.61568 104.179 288.189 112.468 570.941C82.0745 480.682 84.8354 296.478 179.701 183.193C267.197 70.829 459.692 -2.85266 694.55 134.379Z" fill="url(#paint8_linear_401_1278)"/>
<path d="M794.863 96.6968C723.945 42.3562 667.762 30.3832 674.21 34.0677L822.493 174.062C822.941 255.25 874.158 331.085 882.359 396.027C891.029 464.678 875.912 494.576 872.228 541.548C938.541 404.316 862.285 157.022 794.863 96.6968Z" fill="url(#paint9_linear_401_1278)"/>
<path d="M891.569 711.014C877.564 735.882 851.965 756.144 819.729 648.385C867.093 583.984 892.49 482.602 889.727 365.633C882.01 243.138 837.229 123.406 745.127 62.6185C887.885 137.221 955.306 292.561 970.776 419.052C986.433 547.073 924.418 652.683 891.569 711.014Z" fill="url(#paint10_linear_401_1278)"/>
<path d="M577.367 8.90004C431.365 -13.8254 300.278 69.9867 231.203 129.853C338.039 46.9613 469.745 37.587 592.24 73.6708C734.194 115.487 855.502 227.712 885.07 424.556C885.07 155.64 747.892 21.1714 577.367 8.90004Z" fill="url(#paint11_linear_401_1278)"/>
<path d="M882.358 721.146L822.493 642.859C822.493 642.859 782.133 501.943 781.967 504.707C779.205 550.757 803.15 620.755 803.15 620.755L818.808 676.937L840.912 732.198L858.413 737.724L874.069 732.198L882.358 721.146Z" fill="url(#paint12_linear_401_1278)"/>
<path d="M802.387 781.854C717.654 780.012 672.524 549.143 653.183 424.499C704.023 329.45 736.074 346.213 758.179 372.001C779.669 472.699 813.44 671.332 839.228 710.935C852.491 740.408 879.753 726.593 879.753 726.593C879.753 726.593 859.49 772.644 802.387 781.854Z" fill="url(#paint13_linear_401_1278)"/>
<path d="M865.78 688.91C841.101 669.298 842.755 611.544 842.755 611.544L822.492 645.622C822.492 645.622 829.86 678.779 845.518 704.567C854.728 717.461 861.175 729.435 877.753 727.593C887.884 719.303 895.253 702.725 895.253 702.725C895.253 702.725 875.732 696.818 865.78 688.91Z" fill="url(#paint14_linear_401_1278)"/>
<path d="M552.635 800.353C571.055 734.04 509.347 606.94 474.349 545.231C481.717 569.178 548.951 709.172 536.978 772.723C528.688 827.984 401.711 799.413 465.767 864C495.71 886.413 540.256 844.919 552.635 800.353Z" fill="url(#paint15_linear_401_1278)"/>
<path d="M540.975 765.388C538.683 817.045 513.718 867.923 480.371 864.049C447.023 860.175 412.762 799.529 418.808 747.486C424.854 695.444 445.492 657.865 478.839 661.739C512.187 665.613 540.975 697.5 540.975 765.388Z" fill="url(#paint16_linear_401_1278)"/>
<path d="M699.312 406C684.576 425.341 675.366 495.645 673.524 529.416L654.183 425.341C655.104 418.894 663.393 401.948 689.181 371.001C726.022 334.161 752.731 358.107 758.258 374.685C727.864 353.502 712.207 382.974 699.312 406Z" fill="url(#paint17_linear_401_1278)"/>
<path fill-rule="evenodd" clip-rule="evenodd" d="M345.814 1019.07C335.938 1020.52 327.787 1023.01 318.377 1027.45C306.206 1033.19 298.47 1038.58 289.024 1047.91C276 1060.78 266.998 1076.27 262.246 1094C260.054 1102.18 259.692 1105.65 259.644 1119C259.575 1138.3 261.604 1147.52 269.439 1163.5C296.333 1218.35 364.388 1237.69 414.582 1204.75C435.98 1190.71 452.645 1168.13 459.206 1144.28C462.342 1132.88 462.322 1106.07 459.169 1094.5C453.265 1072.82 439.418 1052.24 421.824 1038.98C399.901 1022.47 372.187 1015.21 345.814 1019.07ZM7.327 1021.65C6.132 1021.91 3.994 1023.28 2.577 1024.69L0 1027.27V1118.21V1209.15L2.923 1212.07L5.846 1215L28.173 1214.96C44.195 1214.94 50.924 1214.59 52 1213.71C56.616 1209.97 56.472 1211.61 57 1156.74L57.5 1104.78L78 1130.62C102.056 1160.94 104.379 1163.62 108.348 1165.68C112.467 1167.81 120.069 1167.65 124.001 1165.36C126.77 1163.75 137.516 1150.73 167.52 1112.63L174.5 1103.77L175 1156.97L175.5 1210.17L178.306 1212.58C181.091 1214.98 181.276 1215 203.5 1215C225.725 1215 225.909 1214.98 228.694 1212.58L231.5 1210.17L231.766 1119.12L232.031 1028.06L229.096 1024.78L226.16 1021.5H200.83C182.313 1021.5 174.674 1021.85 172.427 1022.79C170.697 1023.53 157.436 1036.52 142.077 1052.54C127.073 1068.19 114.484 1081 114.099 1081C113.715 1081 101.746 1068.2 87.503 1052.57C73.26 1036.93 60.457 1023.56 59.053 1022.85C57.216 1021.92 49.908 1021.5 33 1021.37C20.075 1021.27 8.522 1021.4 7.327 1021.65ZM374.489 1076.08C391.093 1082.29 403.028 1099.16 402.984 1116.35C402.951 1129.5 398.644 1139.73 389.562 1148.23C379.872 1157.3 368.65 1161.58 356.746 1160.75C347.562 1160.11 339.235 1156.94 332.656 1151.58C320.247 1141.47 315.421 1130.47 316.209 1114.09C316.614 1105.7 317.115 1103.51 319.956 1097.74C323.645 1090.24 331.999 1081.57 338.933 1078.03C349.207 1072.79 363.588 1072 374.489 1076.08Z" fill="url(#paint18_linear_401_1278)"/>
<path fill-rule="evenodd" clip-rule="evenodd" d="M555.546 1019.46C542.208 1022.28 529.487 1028.98 520.615 1037.85C506.274 1052.19 500.305 1070.94 503.874 1090.42C506.215 1103.2 508.97 1109.23 515.807 1116.54C526.317 1127.78 541.062 1134.63 564.957 1139.39C571.606 1140.71 577.946 1142.13 579.046 1142.54C586.279 1145.23 592.55 1152.68 592.542 1158.56C592.537 1162.73 589.335 1167.32 585.002 1169.38C581.877 1170.86 579.474 1171.08 571.134 1170.68C558.377 1170.05 553.222 1168.12 539.555 1158.84C527.773 1150.83 518.632 1145.92 515.509 1145.92C511.76 1145.92 509.826 1147.74 500.218 1160.27C488.942 1174.99 487.546 1177.5 487.546 1183.08C487.546 1186.99 488.052 1187.82 493.813 1193.38C504.97 1204.14 527.455 1215.99 545.855 1220.81C578.868 1229.46 610.884 1222.62 632.472 1202.31C646.968 1188.67 652.62 1177.18 653.319 1159.92C653.677 1151.06 653.406 1148.42 651.588 1143.04C645.049 1123.66 625.904 1107.47 600.61 1099.94C596.893 1098.83 588.495 1096.84 581.948 1095.5C568.1 1092.68 564.902 1091.59 561.701 1088.61C554.111 1081.54 555.144 1069.77 563.744 1065.32C565.551 1064.39 570.052 1063.4 573.745 1063.14C582.356 1062.52 593.704 1065.94 605.046 1072.56C620.645 1081.66 623.073 1082.89 625.521 1082.9C627.322 1082.92 630.338 1080.54 636.6 1074.17C648.407 1062.17 651.546 1057.63 651.546 1052.57C651.546 1048.9 650.934 1047.91 645.242 1042.36C641.775 1038.97 635.588 1034.34 631.492 1032.06C622.616 1027.12 606.038 1021.54 593.99 1019.44C583.36 1017.59 564.341 1017.6 555.546 1019.46ZM941.189 1024.03C935.747 1025.31 931.887 1027.82 929.082 1031.9C926.951 1035.01 920.732 1050.23 902.314 1097.42C899.524 1104.57 889.356 1130.22 879.719 1154.42C863.847 1194.28 862.19 1199.01 862.121 1204.65C862.056 1210.07 862.381 1211.21 864.639 1213.47C868.472 1217.3 872.891 1217.89 896.046 1217.63C913.804 1217.42 917.543 1217.12 920.266 1215.64C924.458 1213.38 925.161 1211.96 930.086 1195.92L934.23 1182.42L965.341 1182.16L996.451 1181.89L999.542 1192.16C1006.64 1215.74 1007.11 1216.29 1020.95 1217.44C1033.63 1218.5 1059.5 1217.55 1062.87 1215.91C1066.41 1214.18 1068.55 1210.15 1068.53 1205.22C1068.51 1198.38 1068.11 1197.32 1024.36 1087.42C999.772 1025.67 1000.1 1026.28 989.662 1024.04C983.496 1022.72 946.806 1022.71 941.189 1024.03ZM674.182 1026.56C670.935 1029.81 670.808 1033.45 673.796 1037.62C675.946 1040.62 695.953 1064.87 726.403 1101.38L740.546 1118.33V1164.05V1209.77L743.081 1212.78C746.849 1217.26 752.974 1218.16 776.924 1217.76C798.919 1217.39 800.468 1217.02 804.282 1211.2C805.889 1208.75 806.074 1204.5 806.361 1163.59L806.677 1118.67L822.331 1099.55C830.94 1089.03 845.991 1070.65 855.777 1058.71C865.562 1046.76 874.012 1035.83 874.554 1034.4C875.707 1031.37 873.722 1026.62 870.601 1024.95C868.166 1023.65 808.654 1023.55 805.251 1024.84C803.797 1025.4 797.145 1033.43 788.633 1044.91C780.827 1055.44 774.015 1063.91 773.495 1063.74C772.975 1063.56 766.126 1055.11 758.275 1044.94C750.423 1034.78 742.885 1025.89 741.523 1025.21C739.698 1024.28 730.857 1023.95 707.932 1023.94L676.819 1023.92L674.182 1026.56ZM975.412 1102.42C981.006 1118.92 985.574 1132.99 985.564 1133.67C985.55 1134.63 980.67 1134.92 964.546 1134.92C949.594 1134.92 943.546 1134.6 943.546 1133.79C943.546 1130.99 963.793 1070.78 964.475 1071.55C964.896 1072.03 969.818 1085.92 975.412 1102.42Z" fill="url(#paint19_linear_401_1278)"/>
<defs>
<linearGradient id="paint0_linear_401_1278" x1="738.043" y1="327.676" x2="602.213" y2="512.97" gradientUnits="userSpaceOnUse">
<stop stop-color="#50AC1E"/>
<stop offset="1" stop-color="#76BE1D"/>
</linearGradient>
<linearGradient id="paint1_linear_401_1278" x1="504.743" y1="73.3549" x2="187.913" y2="241.901" gradientUnits="userSpaceOnUse">
<stop stop-color="#EC692A"/>
<stop offset="1" stop-color="#F2B94B"/>
</linearGradient>
<linearGradient id="paint2_linear_401_1278" x1="531.997" y1="276.323" x2="552.957" y2="881.654" gradientUnits="userSpaceOnUse">
<stop stop-color="#038D45"/>
<stop offset="0.932292" stop-color="#8AC722"/>
</linearGradient>
<linearGradient id="paint3_linear_401_1278" x1="472.506" y1="324.503" x2="304.881" y2="855.93" gradientUnits="userSpaceOnUse">
<stop stop-color="#F4C754"/>
<stop offset="1" stop-color="#D9D9D9" stop-opacity="0"/>
<stop offset="1" stop-color="#E63A27"/>
</linearGradient>
<linearGradient id="paint4_linear_401_1278" x1="341.643" y1="261.737" x2="341.643" y2="844.956" gradientUnits="userSpaceOnUse">
<stop stop-color="#EC5B21"/>
<stop offset="1" stop-color="#EF912F"/>
</linearGradient>
<linearGradient id="paint5_linear_401_1278" x1="457.31" y1="336.676" x2="457.31" y2="487.049" gradientUnits="userSpaceOnUse">
<stop stop-color="#1C9739"/>
<stop offset="1" stop-color="#52AE32"/>
</linearGradient>
<linearGradient id="paint6_linear_401_1278" x1="500.138" y1="353.66" x2="529.211" y2="885.055" gradientUnits="userSpaceOnUse">
<stop stop-color="#038D45"/>
<stop offset="0.932292" stop-color="#8AC722"/>
</linearGradient>
<linearGradient id="paint7_linear_401_1278" x1="842.755" y1="199.85" x2="187.912" y2="141.826" gradientUnits="userSpaceOnUse">
<stop stop-color="#F2D76D"/>
<stop offset="1" stop-color="#E73826"/>
</linearGradient>
<linearGradient id="paint8_linear_401_1278" x1="513.111" y1="83.7229" x2="95.89" y2="571.862" gradientUnits="userSpaceOnUse">
<stop stop-color="#EA3223"/>
<stop offset="1" stop-color="#F6FC73"/>
</linearGradient>
<linearGradient id="paint9_linear_401_1278" x1="673.289" y1="10.1206" x2="898.017" y2="466.024" gradientUnits="userSpaceOnUse">
<stop stop-color="#F0FA7B"/>
<stop offset="1" stop-color="#75BD0F"/>
</linearGradient>
<linearGradient id="paint10_linear_401_1278" x1="786.487" y1="45.5767" x2="818.671" y2="731.315" gradientUnits="userSpaceOnUse">
<stop stop-color="#C4E750"/>
<stop offset="1" stop-color="#33A12E"/>
</linearGradient>
<linearGradient id="paint11_linear_401_1278" x1="911.833" y1="305.767" x2="158.761" y2="126.137" gradientUnits="userSpaceOnUse">
<stop stop-color="#F6FC73"/>
<stop offset="1" stop-color="#EA3223"/>
</linearGradient>
<linearGradient id="paint12_linear_401_1278" x1="816.967" y1="504.707" x2="832.051" y2="737.724" gradientUnits="userSpaceOnUse">
<stop stop-color="#EE8827"/>
<stop offset="1" stop-color="#F6E062"/>
</linearGradient>
<linearGradient id="paint13_linear_401_1278" x1="766.468" y1="351.899" x2="766.468" y2="781.854" gradientUnits="userSpaceOnUse">
<stop stop-color="#EB4024"/>
<stop offset="1" stop-color="#F2C34F"/>
</linearGradient>
<linearGradient id="paint14_linear_401_1278" x1="849.662" y1="611.544" x2="849.662" y2="738.645" gradientUnits="userSpaceOnUse">
<stop stop-color="#36A32C"/>
<stop offset="1" stop-color="#159737"/>
</linearGradient>
<linearGradient id="paint15_linear_401_1278" x1="509.646" y1="545.231" x2="509.646" y2="872.634" gradientUnits="userSpaceOnUse">
<stop stop-color="#6EB813"/>
<stop offset="1" stop-color="#DBF061"/>
</linearGradient>
<linearGradient id="paint16_linear_401_1278" x1="493.809" y1="662.551" x2="470.64" y2="861.991" gradientUnits="userSpaceOnUse">
<stop stop-color="#7EC018"/>
<stop offset="1" stop-color="#C7E754"/>
</linearGradient>
<linearGradient id="paint17_linear_401_1278" x1="759.179" y1="338.766" x2="654.183" y2="530.337" gradientUnits="userSpaceOnUse">
<stop stop-color="#E91F23"/>
<stop offset="1" stop-color="#EF5623"/>
</linearGradient>
<linearGradient id="paint18_linear_401_1278" x1="230.773" y1="1018.06" x2="230.773" y2="1220.89" gradientUnits="userSpaceOnUse">
<stop stop-color="#EC5B21"/>
<stop offset="1" stop-color="#EF912F"/>
</linearGradient>
<linearGradient id="paint19_linear_401_1278" x1="778.039" y1="1018.06" x2="778.039" y2="1224.48" gradientUnits="userSpaceOnUse">
<stop stop-color="#2D9E30"/>
<stop offset="1" stop-color="#71B911"/>
</linearGradient>
</defs>
</svg>
