<svg width="954" height="943" viewBox="0 0 954 943" fill="none" xmlns="http://www.w3.org/2000/svg">
<path d="M685.601 364.24L702.179 401.08C697.574 394.633 681.917 383.581 666.259 381.739C650.602 379.897 628.498 405.685 628.498 405.685C628.498 405.685 605.779 438.228 597.183 453.578L553.267 543L592.578 423.185L629.419 377.134L685.601 364.24Z" fill="url(#paint0_linear_401_1279)"/>
<path d="M637.551 164.984C442.295 68.2772 237.83 179.72 156.78 288.4C151.255 210.114 283.881 132.748 283.881 132.748C362.781 127.222 548.212 88.5397 637.551 164.984Z" fill="url(#paint1_linear_401_1279)"/>
<path d="M643.997 308.057C578.421 285.953 513.52 386.037 489.267 438.842L430.322 548.443C397.472 609.537 335.457 750.698 364.93 830.274C394.402 909.85 438.611 912.245 468.084 908.56C497.556 904.876 541.765 590.81 541.765 590.81C549.303 569.139 561.191 505.683 585.052 456.341C607.84 409.22 637.551 378.976 646.761 375.292C682.956 360.814 695.575 392.791 699.258 395.554C696.495 378.976 666.102 313.584 643.997 308.057Z" fill="url(#paint2_linear_401_1279)"/>
<path d="M461.636 385.739L447.821 364.556C423.875 343.372 395.323 356.267 387.034 364.556C381.508 370.082 268.517 472.14 253.485 505.471C232.302 552.443 214.804 723.752 245.197 832.432C245.197 832.432 259.635 861.573 274.67 872.957C259.012 829.669 257.093 809.067 254.407 767.04C251.509 721.697 254.981 695.767 262.696 650.992C281.117 549.68 297.695 526.654 334.536 451.131C360.599 417.57 415.586 376.529 415.586 376.529L433.085 374.687L461.636 385.739Z" fill="url(#paint3_linear_401_1279)"/>
<path d="M304.063 300.163C381.429 266.086 435.461 332.398 453.268 372.002C415.506 340.688 355.659 360.029 282.879 528.575C212.883 690.674 257.092 833.432 272.748 873.956C137.36 799.354 118.018 712.779 118.018 627.124C126.308 524.891 227.619 348.056 304.063 300.163Z" fill="url(#paint4_linear_401_1279)"/>
<path d="M390.719 379.739C431.243 348.792 457.339 376.055 465.321 393.554L385.767 513.5C385.767 513.5 368.705 495.21 337.605 444.058C337.402 443.723 337.417 443.279 337.636 442.955C356.575 414.944 354.113 414.513 390.719 379.739Z" fill="url(#paint5_linear_401_1279)"/>
<path d="M380.588 506.997C365.853 430.554 417.428 365.16 459.796 386.343C480.979 397.395 561.107 627.65 566.634 728.041C577.686 824.748 534.398 894.745 508.609 905.797C483.742 918.692 427.56 917.771 407.296 893.823C490.189 939.875 518.741 802.644 483.741 715.146C472.688 684.753 435.849 601.862 380.588 506.997Z" fill="url(#paint6_linear_401_1279)"/>
<path d="M185.331 149.643C173.043 160.317 155.858 179.115 155.858 179.115L353.877 102.671C427.558 113.109 584.131 138.775 620.972 157.932C685.443 179.115 766.492 279.506 783.071 306.216C818.069 264.77 632.945 79.6454 492.029 82.4084C460.347 67.6722 340.676 83.0225 284.801 92.5396C284.801 92.5396 219.145 120.268 185.331 149.643Z" fill="url(#paint7_linear_401_1279)"/>
<path d="M638.55 163.379C301.459 23.3843 48.1791 317.189 56.4681 599.941C26.0745 509.682 28.8354 325.478 123.701 212.193C211.197 99.829 403.692 26.1473 638.55 163.379Z" fill="url(#paint8_linear_401_1279)"/>
<path d="M738.863 125.697C667.945 71.3562 611.762 59.3832 618.21 63.0677L766.493 203.062C766.941 284.25 818.158 360.085 826.359 425.027C835.029 493.678 819.912 523.576 816.228 570.548C882.541 433.316 806.285 186.022 738.863 125.697Z" fill="url(#paint9_linear_401_1279)"/>
<path d="M835.569 740.014C821.564 764.882 795.965 785.144 763.729 677.385C811.093 612.984 836.49 511.602 833.727 394.633C826.01 272.138 781.229 152.406 689.127 91.6185C831.885 166.221 899.306 321.561 914.776 448.052C930.433 576.073 868.418 681.683 835.569 740.014Z" fill="url(#paint10_linear_401_1279)"/>
<path d="M521.367 37.9C375.365 15.1746 244.278 98.9867 175.203 158.853C282.039 75.9613 413.745 66.587 536.24 102.671C678.194 144.487 799.502 256.712 829.07 453.556C829.07 184.64 691.892 50.1714 521.367 37.9Z" fill="url(#paint11_linear_401_1279)"/>
<path d="M826.358 750.146L766.493 671.859C766.493 671.859 726.133 530.943 725.967 533.707C723.205 579.757 747.15 649.755 747.15 649.755L762.808 705.937L784.912 761.198L802.413 766.724L818.069 761.198L826.358 750.146Z" fill="url(#paint12_linear_401_1279)"/>
<path d="M746.387 810.854C661.654 809.012 616.524 578.143 597.183 453.499C648.023 358.45 680.074 375.213 702.179 401.001C723.669 501.699 757.44 700.332 783.228 739.935C796.491 769.408 823.753 755.593 823.753 755.593C823.753 755.593 803.49 801.644 746.387 810.854Z" fill="url(#paint13_linear_401_1279)"/>
<path d="M809.78 717.91C785.101 698.298 786.755 640.544 786.755 640.544L766.492 674.622C766.492 674.622 773.86 707.779 789.518 733.567C798.728 746.461 805.175 758.435 821.753 756.593C831.884 748.303 839.253 731.725 839.253 731.725C839.253 731.725 819.732 725.818 809.78 717.91Z" fill="url(#paint14_linear_401_1279)"/>
<path d="M496.635 829.353C515.055 763.04 453.347 635.94 418.349 574.231C425.717 598.178 492.951 738.172 480.978 801.723C472.688 856.984 345.711 828.413 409.767 893C439.71 915.413 484.256 873.919 496.635 829.353Z" fill="url(#paint15_linear_401_1279)"/>
<path d="M484.975 794.388C482.683 846.045 457.718 896.923 424.371 893.049C391.023 889.175 356.762 828.529 362.808 776.486C368.854 724.444 389.492 686.865 422.839 690.739C456.187 694.613 484.975 726.5 484.975 794.388Z" fill="url(#paint16_linear_401_1279)"/>
<path d="M643.312 435C628.576 454.341 619.366 524.645 617.524 558.416L598.183 454.341C599.104 447.894 607.393 430.948 633.181 400.001C670.022 363.161 696.731 387.107 702.258 403.685C671.864 382.502 656.207 411.974 643.312 435Z" fill="url(#paint17_linear_401_1279)"/>
<defs>
<linearGradient id="paint0_linear_401_1279" x1="682.043" y1="356.676" x2="546.213" y2="541.97" gradientUnits="userSpaceOnUse">
<stop stop-color="#50AC1E"/>
<stop offset="1" stop-color="#76BE1D"/>
</linearGradient>
<linearGradient id="paint1_linear_401_1279" x1="448.743" y1="102.355" x2="131.913" y2="270.901" gradientUnits="userSpaceOnUse">
<stop stop-color="#EC692A"/>
<stop offset="1" stop-color="#F2B94B"/>
</linearGradient>
<linearGradient id="paint2_linear_401_1279" x1="475.997" y1="305.323" x2="496.957" y2="910.654" gradientUnits="userSpaceOnUse">
<stop stop-color="#038D45"/>
<stop offset="0.932292" stop-color="#8AC722"/>
</linearGradient>
<linearGradient id="paint3_linear_401_1279" x1="416.506" y1="353.503" x2="248.881" y2="884.93" gradientUnits="userSpaceOnUse">
<stop stop-color="#F4C754"/>
<stop offset="1" stop-color="#D9D9D9" stop-opacity="0"/>
<stop offset="1" stop-color="#E63A27"/>
</linearGradient>
<linearGradient id="paint4_linear_401_1279" x1="285.643" y1="290.737" x2="285.643" y2="873.956" gradientUnits="userSpaceOnUse">
<stop stop-color="#EC5B21"/>
<stop offset="1" stop-color="#EF912F"/>
</linearGradient>
<linearGradient id="paint5_linear_401_1279" x1="401.31" y1="365.676" x2="401.31" y2="516.049" gradientUnits="userSpaceOnUse">
<stop stop-color="#1C9739"/>
<stop offset="1" stop-color="#52AE32"/>
</linearGradient>
<linearGradient id="paint6_linear_401_1279" x1="444.138" y1="382.66" x2="473.211" y2="914.056" gradientUnits="userSpaceOnUse">
<stop stop-color="#038D45"/>
<stop offset="0.932292" stop-color="#8AC722"/>
</linearGradient>
<linearGradient id="paint7_linear_401_1279" x1="786.755" y1="228.85" x2="131.912" y2="170.826" gradientUnits="userSpaceOnUse">
<stop stop-color="#F2D76D"/>
<stop offset="1" stop-color="#E73826"/>
</linearGradient>
<linearGradient id="paint8_linear_401_1279" x1="457.111" y1="112.723" x2="39.89" y2="600.862" gradientUnits="userSpaceOnUse">
<stop stop-color="#EA3223"/>
<stop offset="1" stop-color="#F6FC73"/>
</linearGradient>
<linearGradient id="paint9_linear_401_1279" x1="617.289" y1="39.1206" x2="842.017" y2="495.024" gradientUnits="userSpaceOnUse">
<stop stop-color="#F0FA7B"/>
<stop offset="1" stop-color="#75BD0F"/>
</linearGradient>
<linearGradient id="paint10_linear_401_1279" x1="730.487" y1="74.5767" x2="762.671" y2="760.315" gradientUnits="userSpaceOnUse">
<stop stop-color="#C4E750"/>
<stop offset="1" stop-color="#33A12E"/>
</linearGradient>
<linearGradient id="paint11_linear_401_1279" x1="855.833" y1="334.767" x2="102.761" y2="155.137" gradientUnits="userSpaceOnUse">
<stop stop-color="#F6FC73"/>
<stop offset="1" stop-color="#EA3223"/>
</linearGradient>
<linearGradient id="paint12_linear_401_1279" x1="760.967" y1="533.707" x2="776.051" y2="766.724" gradientUnits="userSpaceOnUse">
<stop stop-color="#EE8827"/>
<stop offset="1" stop-color="#F6E062"/>
</linearGradient>
<linearGradient id="paint13_linear_401_1279" x1="710.468" y1="380.899" x2="710.468" y2="810.854" gradientUnits="userSpaceOnUse">
<stop stop-color="#EB4024"/>
<stop offset="1" stop-color="#F2C34F"/>
</linearGradient>
<linearGradient id="paint14_linear_401_1279" x1="793.662" y1="640.544" x2="793.662" y2="767.645" gradientUnits="userSpaceOnUse">
<stop stop-color="#36A32C"/>
<stop offset="1" stop-color="#159737"/>
</linearGradient>
<linearGradient id="paint15_linear_401_1279" x1="453.646" y1="574.231" x2="453.646" y2="901.634" gradientUnits="userSpaceOnUse">
<stop stop-color="#6EB813"/>
<stop offset="1" stop-color="#DBF061"/>
</linearGradient>
<linearGradient id="paint16_linear_401_1279" x1="437.809" y1="691.551" x2="414.64" y2="890.991" gradientUnits="userSpaceOnUse">
<stop stop-color="#7EC018"/>
<stop offset="1" stop-color="#C7E754"/>
</linearGradient>
<linearGradient id="paint17_linear_401_1279" x1="703.179" y1="367.766" x2="598.183" y2="559.337" gradientUnits="userSpaceOnUse">
<stop stop-color="#E91F23"/>
<stop offset="1" stop-color="#EF5623"/>
</linearGradient>
</defs>
</svg>
