<svg xmlns="http://www.w3.org/2000/svg" viewBox="0 0 24 24"><path d="M24.001 11.988c0-3.125-3.788-6.488-12.105-6.488C7.098 5.5 0 7.586 0 12.063c0 2.634 2.337 4.329 5.194 5.303.032.015.066.021.1.031 2.153.719 4.584 1.037 6.531 1.037.93 0 1.795-.047 2.614-.125l.003.001.006-.001c6.536-.623 9.553-3.563 9.553-6.321zm-17.17 4.306c1.463-.935 5.108-2.217 6.194-2.061l.105.017c.021.033.075.251-.062.705-.243.802-.879 1.681-1.406 1.976a20.728 20.728 0 0 1-4.831-.637zm10.152-8.746c-1.877 1.409-4.766 3.336-6.602 2.911-.241-.416.82-2.498 1.981-3.449 1.766.03 3.308.223 4.621.538zM1.499 12.063c0-2.055 2.444-3.53 5.315-4.34-1.56 1.919-2.819 4.396-3.584 7.056-1.051-.718-1.731-1.618-1.731-2.716zm14.862 4.46c1.825-2.27 3.331-5.057 4.404-7.357 1.144.838 1.736 1.831 1.736 2.822 0 1.856-2.095 3.729-6.14 4.535z"/></svg>