<?xml version="1.0"?><svg fill="#000000" xmlns="http://www.w3.org/2000/svg"  viewBox="0 0 30 30" width="30px" height="30px">    <path d="M 15 3 C 8.372 3 3 8.372 3 15 C 3 21.628 8.372 27 15 27 C 21.628 27 27 21.628 27 15 C 27 8.372 21.628 3 15 3 z M 14.396484 3.8984375 L 15.035156 5.765625 L 15.673828 3.8984375 L 16.558594 3.9960938 L 16.65625 6.6503906 L 15.96875 6.5507812 L 15.902344 4.78125 L 15.28125 6.5507812 L 14.789062 6.5507812 L 14.167969 4.78125 L 14.101562 6.5507812 L 13.414062 6.6503906 L 13.511719 3.9960938 L 14.396484 3.8984375 z M 15 7 C 19.417 7 23 10.581 23 15 C 23 19.419 19.419 23 15 23 C 10.581 23 7 19.419 7 15 C 7 10.581 10.581 7 15 7 z M 22.738281 7.0761719 L 23.230469 7.53125 L 22.310547 8.7402344 L 23.783203 8.0644531 L 24.212891 8.6015625 L 23.230469 9.890625 L 24.611328 9.2558594 L 24.949219 9.8359375 L 22.556641 10.935547 L 22.21875 10.355469 L 23.384766 8.8242188 L 21.634766 9.6269531 L 21.144531 9.171875 L 22.738281 7.0761719 z M 7.1542969 7.265625 C 7.3336406 7.2531094 7.5152344 7.3151094 7.6464844 7.4433594 C 7.7324844 7.5263594 7.7923125 7.6349531 7.8203125 7.7519531 C 7.8493125 7.8719531 7.8396406 7.9884688 7.8066406 8.1054688 C 7.8216406 8.0924688 7.8365156 8.0774531 7.8535156 8.0644531 C 8.0595156 7.9184531 8.3304531 7.8793281 8.5644531 7.9863281 C 8.7974531 8.0923281 8.949375 8.3036875 8.984375 8.5546875 C 8.993375 8.6486875 8.9908906 8.7449375 8.9628906 8.8359375 C 8.9088906 9.0139375 8.7829219 9.1461094 8.6699219 9.2871094 C 8.4509219 9.5611094 8.2307187 9.835375 8.0117188 10.109375 C 7.8287187 10.337375 7.6458906 10.566922 7.4628906 10.794922 C 7.4488906 10.811922 7.435875 10.828703 7.421875 10.845703 C 7.418875 10.848703 7.4033906 10.832078 7.4003906 10.830078 C 7.3323906 10.776078 7.2662656 10.722969 7.1972656 10.667969 C 6.9302656 10.453969 6.6644375 10.240344 6.3984375 10.027344 C 6.1284375 9.8113437 5.8588438 9.5968594 5.5898438 9.3808594 C 5.5178437 9.3238594 5.4489531 9.2659844 5.3769531 9.2089844 C 5.3749531 9.2069844 5.3505625 9.1885 5.3515625 9.1875 C 5.3645625 9.1735 5.3756719 9.1575781 5.3886719 9.1425781 C 5.5726719 8.9135781 5.7535 8.6840781 5.9375 8.4550781 C 6.1515 8.1880781 6.364125 7.92225 6.578125 7.65625 C 6.619125 7.60525 6.6601719 7.5539531 6.7011719 7.5019531 C 6.7741719 7.4119531 6.8695625 7.3427344 6.9765625 7.3027344 C 7.0338125 7.2812344 7.0945156 7.2697969 7.1542969 7.265625 z M 7.1953125 7.9355469 C 7.1371875 7.9226719 7.0745781 7.9271719 7.0175781 7.9511719 C 6.9335781 7.9841719 6.8840781 8.0579531 6.8300781 8.1269531 C 6.6230781 8.3849531 6.4179375 8.6423906 6.2109375 8.9003906 C 6.2079375 8.9043906 6.1630625 8.9579844 6.1640625 8.9589844 C 6.2060625 8.9919844 6.2500156 9.0265469 6.2910156 9.0605469 C 6.4020156 9.1495469 6.5120469 9.2371719 6.6230469 9.3261719 L 6.9492188 8.9199219 C 7.0592187 8.7839219 7.1683438 8.6467188 7.2773438 8.5117188 C 7.3313438 8.4447188 7.3920156 8.3809219 7.4160156 8.2949219 C 7.4370156 8.1989219 7.4146563 8.0984375 7.3476562 8.0234375 C 7.3071563 7.9779375 7.2534375 7.9484219 7.1953125 7.9355469 z M 15 8 C 11.179 8.099 8.099 11.179 8 15 L 15 15 L 15 8 z M 15 15 L 15 22 C 18.822 21.901 21.901 18.821 22 15 L 15 15 z M 8.0253906 8.5273438 C 7.9243906 8.5303438 7.8471094 8.5841562 7.7871094 8.6601562 C 7.7021094 8.7661562 7.6182031 8.8725156 7.5332031 8.9785156 C 7.3582031 9.1965156 7.1828125 9.4167656 7.0078125 9.6347656 C 7.0978125 9.7077656 7.1882969 9.7795156 7.2792969 9.8535156 C 7.3312969 9.8945156 7.3845 9.9375156 7.4375 9.9785156 C 7.4475 9.9865156 7.45775 9.9939531 7.46875 10.001953 C 7.46975 10.002953 7.4755625 9.9931875 7.4765625 9.9921875 C 7.6685625 9.7511875 7.8626875 9.5124844 8.0546875 9.2714844 C 8.1246875 9.1844844 8.1926719 9.0958125 8.2636719 9.0078125 C 8.3346719 8.9198125 8.3496406 8.8032188 8.3066406 8.6992188 C 8.2536406 8.5922188 8.1473906 8.5233438 8.0253906 8.5273438 z"/></svg>