<svg xmlns="http://www.w3.org/2000/svg" viewBox="0 0 24 24"><path d="M4.821 7c-.781.11-.961.843-.548 1.271l4.99 5.169c.48.495 1.016.051 2.51-.194a.751.751 0 0 0-.328-1.464L8.106 8.528c13.525.284 14.086 1.984 14.36 2.317-.39.471-2.688 1.881-15.76 4.361.187-.397 1.033-1.074.443-1.705L2.266 8.274c.448-.47.121-1.262-.538-1.267-.611.066-1.364-.245-1.665.442-.357.815.368.819 5.585 6.643-.804 1.388-1.452 2.703-1.133 3.381a.75.75 0 0 0 .876.51C9.21 17.154 24 13.887 24 10.866 24 8.439 17.547 7.138 4.821 7z"/></svg>