<svg xmlns="http://www.w3.org/2000/svg" viewBox="0 0 24 24"><path d="M22.502 4.216C19.817 1.182 12.445-.44 5.117 5.729c-5.926 5.476-6.202 11.492-3.363 14.653 1.782 1.65 4.003 2.112 6.333 2.112.897 0 1.812-.068 2.722-.164a17.534 17.534 0 0 0 3.232-.952l.005-.002a16.894 16.894 0 0 0 4.12-2.356 16.634 16.634 0 0 0 2.767-2.758c.016-.018.034-.035.049-.055a18.376 18.376 0 0 0 2.181-3.54c1.964-4.147-.053-7.772-.661-8.451zM17.241 17.84a15.35 15.35 0 0 1-3.708 2.133c-2.121.317-6.007.451-8.603-2.057-2.305-2.233-2.153-5.696-1.95-7.22.735-1.275 1.758-2.576 3.129-3.842 1.22-1.027 2.767-1.964 4.431-2.659.452-.042.929-.078 1.515-.109 2.729-.346 5.762 1.002 7.117 2.508.721.797 1.154 1.779 1.289 2.926.281 2.219-.327 4.569-.75 5.863a15.145 15.145 0 0 1-2.47 2.457z"/><path d="M7.761 8.201A.75.75 0 0 0 6.5 8.75v7.5c0 .414.336.75.75.75h3a.75.75 0 0 0 .75-.75v-4.106c0-.277 0-.926-3.239-3.943zm9.288-.139a.75.75 0 0 0-.811.139C13 11.218 13 11.867 13 12.144v4.106c0 .414.336.75.75.75h3a.75.75 0 0 0 .75-.75v-7.5a.752.752 0 0 0-.451-.688z"/></svg>