<svg fill="#FA5252" xmlns="http://www.w3.org/2000/svg"  viewBox="0 0 50 50" width="50px" height="50px" fill-rule="evenodd"><path fill-rule="evenodd" d="M 43.550781 30.871094 C 43.226563 33.238281 43 36.335938 41.3125 38.171875 C 40.71875 38.820313 36.117188 41.519531 36.335938 39.4375 C 37.179688 32.9375 37.644531 26.417969 38.046875 19.875 C 38.164063 17.128906 38.320313 14.378906 38.355469 11.632813 C 38.398438 11.167969 38.109375 10.023438 38.832031 9.992188 C 40.199219 10.394531 41.699219 10.796875 42.601563 12.007813 C 44.304688 14.300781 44.105469 17.742188 44.136719 20.457031 C 44.179688 23.921875 44.019531 27.4375 43.550781 30.871094 Z M 34.535156 9.9375 C 33.597656 13.371094 32.519531 17.921875 31.554688 21.367188 C 30.785156 24.125 29.902344 27.679688 26.5625 28.03125 C 26.0625 28.082031 25.535156 28.128906 25 28.136719 C 24.464844 28.128906 23.9375 28.082031 23.4375 28.03125 C 20.097656 27.679688 19.214844 24.125 18.445313 21.367188 C 17.480469 17.921875 16.402344 13.371094 15.464844 9.9375 C 15.304688 9.347656 15.546875 9.480469 16.757813 9.316406 C 18.929688 9.023438 22.167969 8.976563 25 9.003906 C 27.828125 8.976563 31.070313 9.023438 33.242188 9.316406 C 34.453125 9.480469 34.695313 9.347656 34.535156 9.9375 Z M 30.96875 40.722656 C 30.699219 40.769531 29.792969 40.765625 28.792969 40.789063 C 27.527344 40.820313 26.265625 40.824219 25 40.824219 C 23.738281 40.824219 22.472656 40.820313 21.207031 40.789063 C 20.207031 40.765625 19.300781 40.769531 19.03125 40.722656 C 18.761719 40.675781 18.484375 40.65625 18.566406 40.355469 C 18.648438 40.050781 19.863281 36.105469 19.863281 36.105469 C 20.660156 33.480469 20.714844 33.308594 22.761719 32.902344 C 23.441406 32.769531 24.21875 32.683594 25 32.675781 C 25.785156 32.683594 26.558594 32.769531 27.238281 32.902344 C 29.285156 33.308594 29.34375 33.480469 30.140625 36.105469 C 30.140625 36.105469 31.355469 40.050781 31.433594 40.355469 C 31.515625 40.65625 31.238281 40.675781 30.96875 40.722656 Z M 8.6875 38.171875 C 6.996094 36.335938 6.773438 33.238281 6.449219 30.871094 C 5.980469 27.4375 5.820313 23.921875 5.859375 20.457031 C 5.890625 17.742188 5.695313 14.300781 7.398438 12.007813 C 8.300781 10.796875 9.800781 10.394531 11.167969 9.992188 C 11.890625 10.023438 11.601563 11.167969 11.644531 11.632813 C 11.679688 14.378906 11.835938 17.128906 11.953125 19.875 C 12.351563 26.417969 12.820313 32.9375 13.664063 39.4375 C 13.882813 41.519531 9.28125 38.820313 8.6875 38.171875 Z M 46.921875 17.527344 C 46.769531 14.964844 46.394531 12.167969 44.511719 10.269531 C 42.792969 8.542969 40.3125 8.058594 38.007813 7.746094 C 33.664063 7.164063 29.382813 7.003906 25 7 C 20.617188 7.003906 16.335938 7.164063 11.992188 7.746094 C 9.6875 8.058594 7.207031 8.542969 5.488281 10.273438 C 3.605469 12.167969 3.230469 14.964844 3.078125 17.527344 C 2.902344 20.496094 3.054688 23.460938 3.234375 26.425781 C 3.417969 29.34375 3.742188 32.289063 4.449219 35.132813 C 4.777344 36.449219 5.222656 37.773438 5.980469 38.90625 C 6.710938 39.992188 7.761719 40.765625 8.9375 41.304688 C 11.4375 42.457031 14.320313 42.554688 17.019531 42.722656 C 19.667969 42.886719 22.332031 42.988281 25 43 C 27.667969 42.988281 30.332031 42.886719 32.980469 42.722656 C 35.679688 42.554688 38.5625 42.453125 41.0625 41.304688 C 42.238281 40.761719 43.289063 39.992188 44.019531 38.902344 C 44.777344 37.769531 45.222656 36.445313 45.550781 35.128906 C 46.257813 32.289063 46.582031 29.34375 46.765625 26.421875 C 46.945313 23.460938 47.097656 20.496094 46.921875 17.527344 Z"/></svg>